<?xml version="1.0" encoding="UTF-8"?>
<svg xmlns="http://www.w3.org/2000/svg" xmlns:xlink="http://www.w3.org/1999/xlink" width="115.5" height="42.5" viewBox="-7.15 -34.85 115.5 42.5">
<defs>
<style type="text/css">
.l67d44 {stroke: #875692; fill: #875692; fill-opacity: 0.5;}
.l122d16 {stroke: #F6A600; fill: #F6A600; fill-opacity: 0.5;}
.l93d44 {stroke: #008856; fill: #008856; fill-opacity: 0.5;}
.l78d44 {stroke: #F6A600; fill: #F6A600; fill-opacity: 0.5;}
.l236d0 {stroke: #E25822; fill: #E25822; fill-opacity: 0.5;}
.l66d44 {stroke: #F3C300; fill: #F3C300; fill-opacity: 0.5;}
.l95d20 {stroke: #654522; fill: #654522; fill-opacity: 0.5;}
.l94d20 {stroke: #8DB600; fill: #8DB600; fill-opacity: 0.5;}
.l65d20 {stroke: #008856; fill: #008856; fill-opacity: 0.5;}
.l68d16 {stroke: #E25822; fill: #E25822; fill-opacity: 0.5;}
.l81d4 {stroke: #882D17; fill: #882D17; fill-opacity: 0.5;}
.l66d20 {stroke: #E68FAC; fill: #E68FAC; fill-opacity: 0.5;}
.l67d20 {stroke: #0067A5; fill: #0067A5; fill-opacity: 0.5;}
.l64d16 {stroke: #DCD300; fill: #DCD300; fill-opacity: 0.5;}
.l64d20 {stroke: #848482; fill: #848482; fill-opacity: 0.5;}
.l67d16 {stroke: #654522; fill: #654522; fill-opacity: 0.5;}
.l68d20 {stroke: #F99379; fill: #F99379; fill-opacity: 0.5;}
.l64t5 {stroke: none; fill: #604E97;}
.l67t5 {stroke: none; fill: #DCD300;}
.l68t5 {stroke: none; fill: #882D17;}
.l83t44 {stroke: none; fill: #654522;}
.l64t59 {stroke: none; fill: #B3446C;}
</style>
</defs>
<rect x="-7.15" y="-34.85" width="115.5" height="42.5" fill="#222222" stroke="none"/>
<g id="sky130_fd_sc_hd__buf_16" transform="scale(1 -1)">
<polygon id="0x2179250" class="l236d0" points="0,0 101.2,0 101.2,27.2 0,27.2"/>
<polygon id="0x21b23d0" class="l122d16" points="1.5,-0.85 3.2,-0.85 3.2,0.85 1.5,0.85"/>
<polygon id="0x215bd30" class="l64d16" points="1.5,26.35 3.2,26.35 3.2,28.05 1.5,28.05"/>
<polygon id="0x21611a0" class="l68d16" points="1.5,-0.85 3.2,-0.85 3.2,0.85 1.5,0.85"/>
<polygon id="0x2161210" class="l68d16" points="1.5,26.35 3.2,26.35 3.2,28.05 1.5,28.05"/>
<polygon id="0x2149450" class="l65d20" points="1.35,14.85 96.25,14.85 96.25,24.85 1.35,24.85"/>
<polygon id="0x217c9b0" class="l65d20" points="1.35,2.35 96.25,2.35 96.25,8.85 1.35,8.85"/>
<polygon id="0x1eedd30" class="l67d44" points="84.25,26.35 85.95,26.35 85.95,28.05 84.25,28.05"/>
<polygon id="0x1f0b990" class="l67d44" points="84.25,-0.85 85.95,-0.85 85.95,0.85 84.25,0.85"/>
<polygon id="0x1df57a0" class="l67d44" points="1.45,26.35 3.15,26.35 3.15,28.05 1.45,28.05"/>
<polygon id="0x1f36500" class="l67d44" points="1.45,-0.85 3.15,-0.85 3.15,0.85 1.45,0.85"/>
<polygon id="0x1e6f9c0" class="l67d44" points="6.05,26.35 7.75,26.35 7.75,28.05 6.05,28.05"/>
<polygon id="0x214a040" class="l67d44" points="6.05,-0.85 7.75,-0.85 7.75,0.85 6.05,0.85"/>
<polygon id="0x214a0b0" class="l67d44" points="10.65,26.35 12.35,26.35 12.35,28.05 10.65,28.05"/>
<polygon id="0x1fb61f0" class="l67d44" points="10.65,-0.85 12.35,-0.85 12.35,0.85 10.65,0.85"/>
<polygon id="0x1fbf0a0" class="l67d44" points="15.25,26.35 16.95,26.35 16.95,28.05 15.25,28.05"/>
<polygon id="0x1fbf170" class="l67d44" points="15.25,-0.85 16.95,-0.85 16.95,0.85 15.25,0.85"/>
<polygon id="0x2163880" class="l67d44" points="19.85,26.35 21.55,26.35 21.55,28.05 19.85,28.05"/>
<polygon id="0x21528c0" class="l67d44" points="19.85,-0.85 21.55,-0.85 21.55,0.85 19.85,0.85"/>
<polygon id="0x2152990" class="l67d44" points="24.45,26.35 26.15,26.35 26.15,28.05 24.45,28.05"/>
<polygon id="0x214ba70" class="l67d44" points="24.45,-0.85 26.15,-0.85 26.15,0.85 24.45,0.85"/>
<polygon id="0x207f780" class="l67d44" points="29.05,26.35 30.75,26.35 30.75,28.05 29.05,28.05"/>
<polygon id="0x207f850" class="l67d44" points="29.05,-0.85 30.75,-0.85 30.75,0.85 29.05,0.85"/>
<polygon id="0x20fd800" class="l67d44" points="33.65,26.35 35.35,26.35 35.35,28.05 33.65,28.05"/>
<polygon id="0x215c9a0" class="l67d44" points="33.65,-0.85 35.35,-0.85 35.35,0.85 33.65,0.85"/>
<polygon id="0x215ca70" class="l67d44" points="38.25,26.35 39.95,26.35 39.95,28.05 38.25,28.05"/>
<polygon id="0x215f360" class="l67d44" points="38.25,-0.85 39.95,-0.85 39.95,0.85 38.25,0.85"/>
<polygon id="0x2074120" class="l67d44" points="42.85,26.35 44.55,26.35 44.55,28.05 42.85,28.05"/>
<polygon id="0x20741f0" class="l67d44" points="42.85,-0.85 44.55,-0.85 44.55,0.85 42.85,0.85"/>
<polygon id="0x1f0ebe0" class="l67d44" points="47.45,26.35 49.15,26.35 49.15,28.05 47.45,28.05"/>
<polygon id="0x1ff01a0" class="l67d44" points="47.45,-0.85 49.15,-0.85 49.15,0.85 47.45,0.85"/>
<polygon id="0x1ff0270" class="l67d44" points="52.05,26.35 53.75,26.35 53.75,28.05 52.05,28.05"/>
<polygon id="0x1e8f510" class="l67d44" points="52.05,-0.85 53.75,-0.85 53.75,0.85 52.05,0.85"/>
<polygon id="0x2087970" class="l67d44" points="56.65,26.35 58.35,26.35 58.35,28.05 56.65,28.05"/>
<polygon id="0x2087a40" class="l67d44" points="56.65,-0.85 58.35,-0.85 58.35,0.85 56.65,0.85"/>
<polygon id="0x1f25a70" class="l67d44" points="61.25,26.35 62.95,26.35 62.95,28.05 61.25,28.05"/>
<polygon id="0x1f3e870" class="l67d44" points="61.25,-0.85 62.95,-0.85 62.95,0.85 61.25,0.85"/>
<polygon id="0x1f3e940" class="l67d44" points="65.85,26.35 67.55,26.35 67.55,28.05 65.85,28.05"/>
<polygon id="0x1f28510" class="l67d44" points="65.85,-0.85 67.55,-0.85 67.55,0.85 65.85,0.85"/>
<polygon id="0x1fab370" class="l67d44" points="70.45,26.35 72.15,26.35 72.15,28.05 70.45,28.05"/>
<polygon id="0x1fab440" class="l67d44" points="70.45,-0.85 72.15,-0.85 72.15,0.85 70.45,0.85"/>
<polygon id="0x212bdd0" class="l67d44" points="75.05,26.35 76.75,26.35 76.75,28.05 75.05,28.05"/>
<polygon id="0x1eca950" class="l67d44" points="75.05,-0.85 76.75,-0.85 76.75,0.85 75.05,0.85"/>
<polygon id="0x1ecaa20" class="l67d44" points="79.65,26.35 81.35,26.35 81.35,28.05 79.65,28.05"/>
<polygon id="0x202f1a0" class="l67d44" points="79.65,-0.85 81.35,-0.85 81.35,0.85 79.65,0.85"/>
<polygon id="0x2086a20" class="l67d44" points="88.85,26.35 90.55,26.35 90.55,28.05 88.85,28.05"/>
<polygon id="0x2086af0" class="l67d44" points="88.85,-0.85 90.55,-0.85 90.55,0.85 88.85,0.85"/>
<polygon id="0x2175e50" class="l67d44" points="93.45,26.35 95.15,26.35 95.15,28.05 93.45,28.05"/>
<polygon id="0x1ec9120" class="l67d44" points="93.45,-0.85 95.15,-0.85 95.15,0.85 93.45,0.85"/>
<polygon id="0x1ec91f0" class="l67d44" points="98.05,26.35 99.75,26.35 99.75,28.05 98.05,28.05"/>
<polygon id="0x1fcda90" class="l67d44" points="98.05,-0.85 99.75,-0.85 99.75,0.85 98.05,0.85"/>
<polygon id="0x20bbeb0" class="l81d4" points="0,0 101.2,0 101.2,27.2 0,27.2"/>
<polygon id="0x20bbf20" class="l94d20" points="0,13.55 101.2,13.55 101.2,29.1 0,29.1"/>
<polygon id="0x216c970" class="l93d44" points="0,-1.9 101.2,-1.9 101.2,10.15 0,10.15"/>
<polygon id="0x216ca40" class="l95d20" points="0,9.75 101.2,9.75 101.2,13.45 0,13.45"/>
<polygon id="0x1e6f1a0" class="l66d20" points="26.45,26.15 24.95,26.15 24.95,12.95 22.25,12.95 22.25,26.15 20.75,26.15 20.75,12.95 18.05,12.95 18.05,26.15 16.55,26.15 16.55,12.95 13.85,12.95 13.85,26.15 12.35,26.15 12.35,12.95 9.65,12.95 9.65,26.15 8.15,26.15 8.15,12.95 5.45,12.95 5.45,26.15 3.95,26.15 3.95,1.05 5.45,1.05 5.45,10.25 8.15,10.25 8.15,1.05 9.65,1.05 9.65,10.25 12.35,10.25 12.35,1.05 13.85,1.05 13.85,10.25 16.55,10.25 16.55,1.05 18.05,1.05 18.05,10.25 20.75,10.25 20.75,1.05 22.25,1.05 22.25,10.25 24.95,10.25 24.95,1.05 26.45,1.05"/>
<polygon id="0x1e6f210" class="l66d20" points="93.65,26.15 92.15,26.15 92.15,12.95 89.45,12.95 89.45,26.15 87.95,26.15 87.95,12.95 85.25,12.95 85.25,26.15 83.75,26.15 83.75,12.95 81.05,12.95 81.05,26.15 79.55,26.15 79.55,12.95 76.85,12.95 76.85,26.15 75.35,26.15 75.35,12.95 72.65,12.95 72.65,26.15 71.15,26.15 71.15,12.95 68.45,12.95 68.45,26.15 66.95,26.15 66.95,12.95 64.25,12.95 64.25,26.15 62.75,26.15 62.75,12.95 60.05,12.95 60.05,26.15 58.55,26.15 58.55,12.95 55.85,12.95 55.85,26.15 54.35,26.15 54.35,12.95 51.65,12.95 51.65,26.15 50.15,26.15 50.15,12.95 47.45,12.95 47.45,26.15 45.95,26.15 45.95,12.95 43.25,12.95 43.25,26.15 41.75,26.15 41.75,12.95 39.05,12.95 39.05,26.15 37.55,26.15 37.55,12.95 34.85,12.95 34.85,26.15 33.35,26.15 33.35,12.95 30.65,12.95 30.65,26.15 29.15,26.15 29.15,1.05 30.65,1.05 30.65,10.25 33.35,10.25 33.35,1.05 34.85,1.05 34.85,10.25 37.55,10.25 37.55,1.05 39.05,1.05 39.05,10.25 41.75,10.25 41.75,1.05 43.25,1.05 43.25,10.25 45.95,10.25 45.95,1.05 47.45,1.05 47.45,10.25 50.15,10.25 50.15,1.05 51.65,1.05 51.65,10.25 54.35,10.25 54.35,1.05 55.85,1.05 55.85,10.25 58.55,10.25 58.55,1.05 60.05,1.05 60.05,10.25 62.75,10.25 62.75,1.05 64.25,1.05 64.25,10.25 66.95,10.25 66.95,1.05 68.45,1.05 68.45,10.25 71.15,10.25 71.15,1.05 72.65,1.05 72.65,10.25 75.35,10.25 75.35,1.05 76.85,1.05 76.85,10.25 79.55,10.25 79.55,1.05 81.05,1.05 81.05,10.25 83.75,10.25 83.75,1.05 85.25,1.05 85.25,10.25 87.95,10.25 87.95,1.05 89.45,1.05 89.45,10.25 92.15,10.25 92.15,1.05 93.65,1.05 93.65,10.25 93.85,10.25 93.85,12.95 93.65,12.95"/>
<polygon id="0x1eaef90" class="l67d20" points="101.2,0.85 95.85,0.85 95.85,5.65 94.15,5.65 94.15,0.85 87.45,0.85 87.45,5.65 85.75,5.65 85.75,0.85 79.05,0.85 79.05,5.65 77.35,5.65 77.35,0.85 70.65,0.85 70.65,5.65 68.95,5.65 68.95,0.85 62.25,0.85 62.25,5.65 60.55,5.65 60.55,0.85 53.85,0.85 53.85,5.65 52.15,5.65 52.15,0.85 45.45,0.85 45.45,5.65 43.75,5.65 43.75,0.85 37.05,0.85 37.05,5.65 35.35,5.65 35.35,0.85 28.65,0.85 28.65,5.65 26.95,5.65 26.95,0.85 20.25,0.85 20.25,5.65 18.55,5.65 18.55,0.85 11.85,0.85 11.85,5.65 10.15,5.65 10.15,0.85 3.45,0.85 3.45,9.05 1.75,9.05 1.75,0.85 0,0.85 0,-0.85 101.2,-0.85"/>
<polygon id="0x1eaf000" class="l67d20" points="101.2,28.05 0,28.05 0,26.35 1.75,26.35 1.75,14.45 3.45,14.45 3.45,26.35 10.15,26.35 10.15,18.35 11.85,18.35 11.85,26.35 18.55,26.35 18.55,18.35 20.25,18.35 20.25,26.35 26.95,26.35 26.95,18.35 28.65,18.35 28.65,26.35 35.35,26.35 35.35,18.35 37.05,18.35 37.05,26.35 43.75,26.35 43.75,18.35 45.45,18.35 45.45,26.35 52.15,26.35 52.15,18.35 53.85,18.35 53.85,26.35 60.55,26.35 60.55,18.35 62.25,18.35 62.25,26.35 68.95,26.35 68.95,18.35 70.65,18.35 70.65,26.35 77.35,26.35 77.35,18.35 79.05,18.35 79.05,26.35 85.75,26.35 85.75,18.35 87.45,18.35 87.45,26.35 94.15,26.35 94.15,18.35 95.85,18.35 95.85,26.35 101.2,26.35"/>
<polygon id="0x1eaf070" class="l67d20" points="0.85,10.75 24.85,10.75 24.85,12.75 0.85,12.75"/>
<polygon id="0x1f594e0" class="l67d20" points="94.1,12.75 28.65,12.75 28.65,16.15 25.25,16.15 25.25,24.65 21.95,24.65 21.95,16.15 16.85,16.15 16.85,24.65 13.55,24.65 13.55,16.15 8.45,16.15 8.45,24.65 5.15,24.65 5.15,14.45 26.9,14.45 26.9,9.05 5.15,9.05 5.15,2.6 8.45,2.6 8.45,7.35 13.55,7.35 13.55,2.6 16.85,2.6 16.85,7.35 21.95,7.35 21.95,2.6 25.25,2.6 25.25,7.35 28.65,7.35 28.65,10.75 94.1,10.75"/>
<polygon id="0x1f59550" class="l67d20" points="100.35,23.6 97.6,23.6 97.6,16.15 92.45,16.15 92.45,24.65 89.15,24.65 89.15,16.15 84.05,16.15 84.05,24.65 80.75,24.65 80.75,16.15 75.65,16.15 75.65,24.65 72.35,24.65 72.35,16.15 67.25,16.15 67.25,24.65 63.95,24.65 63.95,16.15 58.85,16.15 58.85,24.65 55.55,24.65 55.55,16.15 50.45,16.15 50.45,24.65 47.15,24.65 47.15,16.15 42.05,16.15 42.05,24.65 38.75,24.65 38.75,16.15 33.65,16.15 33.65,24.65 30.35,24.65 30.35,14.45 96.55,14.45 96.55,9.05 30.35,9.05 30.35,2.55 32.85,2.55 32.85,2.6 33.65,2.6 33.65,7.35 38.75,7.35 38.75,2.6 39.55,2.6 39.55,2.55 41.25,2.55 41.25,2.6 42.05,2.6 42.05,7.35 47.15,7.35 47.15,2.6 47.95,2.6 47.95,2.55 49.65,2.55 49.65,2.6 50.45,2.6 50.45,7.35 55.55,7.35 55.55,2.6 58.85,2.6 58.85,7.35 63.95,7.35 63.95,2.6 67.25,2.6 67.25,7.35 72.35,7.35 72.35,2.6 75.65,2.6 75.65,7.35 80.75,7.35 80.75,2.6 84.05,2.6 84.05,7.35 89.15,7.35 89.15,2.6 92.45,2.6 92.45,7.35 97.6,7.35 97.6,3.65 100.35,3.65"/>
<polygon id="0x1f595c0" class="l66d44" points="14.35,18.85 16.05,18.85 16.05,20.55 14.35,20.55"/>
<polygon id="0x2168240" class="l66d44" points="14.35,15.45 16.05,15.45 16.05,17.15 14.35,17.15"/>
<polygon id="0x2168310" class="l66d44" points="14.35,6.55 16.05,6.55 16.05,8.25 14.35,8.25"/>
<polygon id="0x1e74cf0" class="l66d44" points="14.35,3.15 16.05,3.15 16.05,4.85 14.35,4.85"/>
<polygon id="0x1e74dc0" class="l66d44" points="15.35,10.75 17.05,10.75 17.05,12.45 15.35,12.45"/>
<polygon id="0x1f13400" class="l66d44" points="18.55,22.55 20.25,22.55 20.25,24.25 18.55,24.25"/>
<polygon id="0x1f134d0" class="l66d44" points="18.55,19.15 20.25,19.15 20.25,20.85 18.55,20.85"/>
<polygon id="0x1f5b310" class="l66d44" points="18.55,3.15 20.25,3.15 20.25,4.85 18.55,4.85"/>
<polygon id="0x1f5b3e0" class="l66d44" points="18.75,10.75 20.45,10.75 20.45,12.45 18.75,12.45"/>
<polygon id="0x1f46280" class="l66d44" points="22.15,10.75 23.85,10.75 23.85,12.45 22.15,12.45"/>
<polygon id="0x1f46350" class="l66d44" points="22.75,22.25 24.45,22.25 24.45,23.95 22.75,23.95"/>
<polygon id="0x1f3dd10" class="l66d44" points="22.75,18.85 24.45,18.85 24.45,20.55 22.75,20.55"/>
<polygon id="0x1f3dde0" class="l66d44" points="22.75,15.45 24.45,15.45 24.45,17.15 22.75,17.15"/>
<polygon id="0x1f4a980" class="l66d44" points="22.75,6.55 24.45,6.55 24.45,8.25 22.75,8.25"/>
<polygon id="0x1f4aa50" class="l66d44" points="22.75,3.15 24.45,3.15 24.45,4.85 22.75,4.85"/>
<polygon id="0x1f3b2c0" class="l66d44" points="26.95,22.55 28.65,22.55 28.65,24.25 26.95,24.25"/>
<polygon id="0x1f3b390" class="l66d44" points="39.55,18.85 41.25,18.85 41.25,20.55 39.55,20.55"/>
<polygon id="0x1f8f8d0" class="l66d44" points="39.55,15.45 41.25,15.45 41.25,17.15 39.55,17.15"/>
<polygon id="0x1f8f9a0" class="l66d44" points="39.55,6.55 41.25,6.55 41.25,8.25 39.55,8.25"/>
<polygon id="0x2032b70" class="l66d44" points="39.55,3.15 41.25,3.15 41.25,4.85 39.55,4.85"/>
<polygon id="0x2032c40" class="l66d44" points="40.35,10.75 42.05,10.75 42.05,12.45 40.35,12.45"/>
<polygon id="0x2083af0" class="l66d44" points="43.75,22.55 45.45,22.55 45.45,24.25 43.75,24.25"/>
<polygon id="0x2083bc0" class="l66d44" points="43.75,19.15 45.45,19.15 45.45,20.85 43.75,20.85"/>
<polygon id="0x20ee5f0" class="l66d44" points="43.75,10.75 45.45,10.75 45.45,12.45 43.75,12.45"/>
<polygon id="0x20ee6c0" class="l66d44" points="43.75,3.15 45.45,3.15 45.45,4.85 43.75,4.85"/>
<polygon id="0x213c990" class="l66d44" points="47.15,10.75 48.85,10.75 48.85,12.45 47.15,12.45"/>
<polygon id="0x213ca60" class="l66d44" points="47.95,22.25 49.65,22.25 49.65,23.95 47.95,23.95"/>
<polygon id="0x1e6cec0" class="l66d44" points="47.95,18.85 49.65,18.85 49.65,20.55 47.95,20.55"/>
<polygon id="0x1e6cf90" class="l66d44" points="47.95,15.45 49.65,15.45 49.65,17.15 47.95,17.15"/>
<polygon id="0x200dd50" class="l66d44" points="47.95,6.55 49.65,6.55 49.65,8.25 47.95,8.25"/>
<polygon id="0x200de20" class="l66d44" points="47.95,3.15 49.65,3.15 49.65,4.85 47.95,4.85"/>
<polygon id="0x203a890" class="l66d44" points="50.55,10.75 52.25,10.75 52.25,12.45 50.55,12.45"/>
<polygon id="0x203a960" class="l66d44" points="52.15,22.55 53.85,22.55 53.85,24.25 52.15,24.25"/>
<polygon id="0x205e650" class="l66d44" points="52.15,19.15 53.85,19.15 53.85,20.85 52.15,20.85"/>
<polygon id="0x205e720" class="l66d44" points="52.15,3.15 53.85,3.15 53.85,4.85 52.15,4.85"/>
<polygon id="0x20855c0" class="l66d44" points="53.95,10.75 55.65,10.75 55.65,12.45 53.95,12.45"/>
<polygon id="0x2085690" class="l66d44" points="56.35,22.25 58.05,22.25 58.05,23.95 56.35,23.95"/>
<polygon id="0x20a2eb0" class="l66d44" points="56.35,18.85 58.05,18.85 58.05,20.55 56.35,20.55"/>
<polygon id="0x20a2f80" class="l66d44" points="56.35,15.45 58.05,15.45 58.05,17.15 56.35,17.15"/>
<polygon id="0x2154520" class="l66d44" points="56.35,6.55 58.05,6.55 58.05,8.25 56.35,8.25"/>
<polygon id="0x21545f0" class="l66d44" points="56.35,3.15 58.05,3.15 58.05,4.85 56.35,4.85"/>
<polygon id="0x1e7ef20" class="l66d44" points="57.35,10.75 59.05,10.75 59.05,12.45 57.35,12.45"/>
<polygon id="0x1e7eff0" class="l66d44" points="60.55,22.55 62.25,22.55 62.25,24.25 60.55,24.25"/>
<polygon id="0x1f013a0" class="l66d44" points="60.55,19.15 62.25,19.15 62.25,20.85 60.55,20.85"/>
<polygon id="0x1f01470" class="l66d44" points="60.55,3.15 62.25,3.15 62.25,4.85 60.55,4.85"/>
<polygon id="0x20f7ef0" class="l66d44" points="60.75,10.75 62.45,10.75 62.45,12.45 60.75,12.45"/>
<polygon id="0x20f7fc0" class="l66d44" points="64.15,10.75 65.85,10.75 65.85,12.45 64.15,12.45"/>
<polygon id="0x2161e60" class="l66d44" points="64.75,22.25 66.45,22.25 66.45,23.95 64.75,23.95"/>
<polygon id="0x2161f30" class="l66d44" points="64.75,18.85 66.45,18.85 66.45,20.55 64.75,20.55"/>
<polygon id="0x2158520" class="l66d44" points="64.75,15.45 66.45,15.45 66.45,17.15 64.75,17.15"/>
<polygon id="0x21585f0" class="l66d44" points="64.75,6.55 66.45,6.55 66.45,8.25 64.75,8.25"/>
<polygon id="0x1eddbb0" class="l66d44" points="64.75,3.15 66.45,3.15 66.45,4.85 64.75,4.85"/>
<polygon id="0x1eddc80" class="l66d44" points="67.55,10.75 69.25,10.75 69.25,12.45 67.55,12.45"/>
<polygon id="0x1f6bcf0" class="l66d44" points="68.95,22.55 70.65,22.55 70.65,24.25 68.95,24.25"/>
<polygon id="0x1f6bdc0" class="l66d44" points="68.95,19.15 70.65,19.15 70.65,20.85 68.95,20.85"/>
<polygon id="0x1f421f0" class="l66d44" points="94.15,3.15 95.85,3.15 95.85,4.85 94.15,4.85"/>
<polygon id="0x1f422c0" class="l66d44" points="5.95,18.85 7.65,18.85 7.65,20.55 5.95,20.55"/>
<polygon id="0x1f4d240" class="l66d44" points="5.95,15.45 7.65,15.45 7.65,17.15 5.95,17.15"/>
<polygon id="0x1f4d310" class="l66d44" points="5.95,6.55 7.65,6.55 7.65,8.25 5.95,8.25"/>
<polygon id="0x1f2a190" class="l66d44" points="5.95,3.15 7.65,3.15 7.65,4.85 5.95,4.85"/>
<polygon id="0x1f2a260" class="l66d44" points="8.55,10.75 10.25,10.75 10.25,12.45 8.55,12.45"/>
<polygon id="0x1facb20" class="l66d44" points="10.15,22.55 11.85,22.55 11.85,24.25 10.15,24.25"/>
<polygon id="0x1facbf0" class="l66d44" points="10.15,19.15 11.85,19.15 11.85,20.85 10.15,20.85"/>
<polygon id="0x204dcd0" class="l66d44" points="10.15,3.15 11.85,3.15 11.85,4.85 10.15,4.85"/>
<polygon id="0x204dda0" class="l66d44" points="11.95,10.75 13.65,10.75 13.65,12.45 11.95,12.45"/>
<polygon id="0x20b4c50" class="l66d44" points="14.35,22.25 16.05,22.25 16.05,23.95 14.35,23.95"/>
<polygon id="0x20b4d20" class="l66d44" points="68.95,3.15 70.65,3.15 70.65,4.85 68.95,4.85"/>
<polygon id="0x20f1040" class="l66d44" points="70.95,10.75 72.65,10.75 72.65,12.45 70.95,12.45"/>
<polygon id="0x20f1110" class="l66d44" points="73.15,22.25 74.85,22.25 74.85,23.95 73.15,23.95"/>
<polygon id="0x1e6c6d0" class="l66d44" points="73.15,18.85 74.85,18.85 74.85,20.55 73.15,20.55"/>
<polygon id="0x1e6c7a0" class="l66d44" points="73.15,15.45 74.85,15.45 74.85,17.15 73.15,17.15"/>
<polygon id="0x20545c0" class="l66d44" points="73.15,6.55 74.85,6.55 74.85,8.25 73.15,8.25"/>
<polygon id="0x2054690" class="l66d44" points="73.15,3.15 74.85,3.15 74.85,4.85 73.15,4.85"/>
<polygon id="0x2049470" class="l66d44" points="74.35,10.75 76.05,10.75 76.05,12.45 74.35,12.45"/>
<polygon id="0x2049540" class="l66d44" points="77.35,22.55 79.05,22.55 79.05,24.25 77.35,24.25"/>
<polygon id="0x1ee0cd0" class="l66d44" points="77.35,19.15 79.05,19.15 79.05,20.85 77.35,20.85"/>
<polygon id="0x1ee0da0" class="l66d44" points="77.35,3.15 79.05,3.15 79.05,4.85 77.35,4.85"/>
<polygon id="0x1fc0200" class="l66d44" points="77.75,10.75 79.45,10.75 79.45,12.45 77.75,12.45"/>
<polygon id="0x1fc02d0" class="l66d44" points="81.15,10.75 82.85,10.75 82.85,12.45 81.15,12.45"/>
<polygon id="0x218c630" class="l66d44" points="81.55,22.25 83.25,22.25 83.25,23.95 81.55,23.95"/>
<polygon id="0x218c6a0" class="l66d44" points="81.55,18.85 83.25,18.85 83.25,20.55 81.55,20.55"/>
<polygon id="0x218c770" class="l66d44" points="81.55,15.45 83.25,15.45 83.25,17.15 81.55,17.15"/>
<polygon id="0x1e29ea0" class="l66d44" points="81.55,6.55 83.25,6.55 83.25,8.25 81.55,8.25"/>
<polygon id="0x1e29f70" class="l66d44" points="81.55,3.15 83.25,3.15 83.25,4.85 81.55,4.85"/>
<polygon id="0x21bf010" class="l66d44" points="84.55,10.75 86.25,10.75 86.25,12.45 84.55,12.45"/>
<polygon id="0x21bf0e0" class="l66d44" points="85.75,22.55 87.45,22.55 87.45,24.25 85.75,24.25"/>
<polygon id="0x21bf1b0" class="l66d44" points="85.75,19.15 87.45,19.15 87.45,20.85 85.75,20.85"/>
<polygon id="0x21bf280" class="l66d44" points="85.75,3.15 87.45,3.15 87.45,4.85 85.75,4.85"/>
<polygon id="0x21bf350" class="l66d44" points="87.95,10.75 89.65,10.75 89.65,12.45 87.95,12.45"/>
<polygon id="0x21bf420" class="l66d44" points="89.95,22.25 91.65,22.25 91.65,23.95 89.95,23.95"/>
<polygon id="0x21bf4f0" class="l66d44" points="89.95,18.85 91.65,18.85 91.65,20.55 89.95,20.55"/>
<polygon id="0x21bf5c0" class="l66d44" points="89.95,15.45 91.65,15.45 91.65,17.15 89.95,17.15"/>
<polygon id="0x21bf690" class="l66d44" points="89.95,6.55 91.65,6.55 91.65,8.25 89.95,8.25"/>
<polygon id="0x21bf760" class="l66d44" points="89.95,3.15 91.65,3.15 91.65,4.85 89.95,4.85"/>
<polygon id="0x21bf830" class="l66d44" points="91.35,10.75 93.05,10.75 93.05,12.45 91.35,12.45"/>
<polygon id="0x21bf900" class="l66d44" points="94.15,22.55 95.85,22.55 95.85,24.25 94.15,24.25"/>
<polygon id="0x21bf9d0" class="l66d44" points="94.15,19.15 95.85,19.15 95.85,20.85 94.15,20.85"/>
<polygon id="0x21bfaa0" class="l66d44" points="1.75,22.55 3.45,22.55 3.45,24.25 1.75,24.25"/>
<polygon id="0x21bfb70" class="l66d44" points="1.75,19.15 3.45,19.15 3.45,20.85 1.75,20.85"/>
<polygon id="0x21bfc40" class="l66d44" points="1.75,15.75 3.45,15.75 3.45,17.45 1.75,17.45"/>
<polygon id="0x21bfd10" class="l66d44" points="1.75,6.55 3.45,6.55 3.45,8.25 1.75,8.25"/>
<polygon id="0x21bfde0" class="l66d44" points="1.75,3.15 3.45,3.15 3.45,4.85 1.75,4.85"/>
<polygon id="0x21bfeb0" class="l66d44" points="5.15,10.75 6.85,10.75 6.85,12.45 5.15,12.45"/>
<polygon id="0x21bff80" class="l66d44" points="5.95,22.25 7.65,22.25 7.65,23.95 5.95,23.95"/>
<polygon id="0x21c0050" class="l66d44" points="35.35,22.55 37.05,22.55 37.05,24.25 35.35,24.25"/>
<polygon id="0x21c0120" class="l66d44" points="35.35,19.15 37.05,19.15 37.05,20.85 35.35,20.85"/>
<polygon id="0x21c01f0" class="l66d44" points="35.35,3.15 37.05,3.15 37.05,4.85 35.35,4.85"/>
<polygon id="0x21c02c0" class="l66d44" points="36.95,10.75 38.65,10.75 38.65,12.45 36.95,12.45"/>
<polygon id="0x21c0390" class="l66d44" points="39.55,22.25 41.25,22.25 41.25,23.95 39.55,23.95"/>
<polygon id="0x21c0460" class="l66d44" points="26.95,19.15 28.65,19.15 28.65,20.85 26.95,20.85"/>
<polygon id="0x21c0530" class="l66d44" points="26.95,3.15 28.65,3.15 28.65,4.85 26.95,4.85"/>
<polygon id="0x21c0600" class="l66d44" points="30.15,10.75 31.85,10.75 31.85,12.45 30.15,12.45"/>
<polygon id="0x21c06d0" class="l66d44" points="31.15,22.25 32.85,22.25 32.85,23.95 31.15,23.95"/>
<polygon id="0x21c07a0" class="l66d44" points="31.15,18.85 32.85,18.85 32.85,20.55 31.15,20.55"/>
<polygon id="0x21c0870" class="l66d44" points="31.15,15.45 32.85,15.45 32.85,17.15 31.15,17.15"/>
<polygon id="0x21c0940" class="l66d44" points="31.15,6.55 32.85,6.55 32.85,8.25 31.15,8.25"/>
<polygon id="0x21c0a10" class="l66d44" points="31.15,3.15 32.85,3.15 32.85,4.85 31.15,4.85"/>
<polygon id="0x21c0ae0" class="l66d44" points="33.55,10.75 35.25,10.75 35.25,12.45 33.55,12.45"/>
<polygon id="0x21c0bb0" class="l64d20" points="-1.9,13.05 103.1,13.05 103.1,29.1 -1.9,29.1"/>
<polygon id="0x21c0c80" class="l78d44" points="0,12.5 101.2,12.5 101.2,27.2 0,27.2"/>
<polygon id="0x21c0d50" class="l67d16" points="15.3,11.05 17,11.05 17,12.75 15.3,12.75"/>
<polygon id="0x21c0e20" class="l67d16" points="19.9,11.05 21.6,11.05 21.6,12.75 19.9,12.75"/>
<polygon id="0x21c0ef0" class="l67d16" points="98.05,14.45 99.75,14.45 99.75,16.15 98.05,16.15"/>
<polygon id="0x21c0fc0" class="l67d16" points="98.05,11.05 99.75,11.05 99.75,12.75 98.05,12.75"/>
<polygon id="0x1df8d30" class="l68d20" points="0,2.4 0,-2.4 101.2,-2.4 101.2,2.4"/>
<polygon id="0x1df8d30" class="l68d20" points="0,29.6 0,24.8 101.2,24.8 101.2,29.6"/>
<text id="0x2144d50" class="l67t5" text-anchor="middle" dominant-baseline="central" transform="translate(20.75 11.9) scale(0.1) scale(1 -1)">A</text>
<text id="0x21ac8c0" class="l67t5" text-anchor="middle" dominant-baseline="central" transform="translate(16.15 11.9) scale(0.1) scale(1 -1)">A</text>
<text id="0x1e203e0" class="l67t5" text-anchor="middle" dominant-baseline="central" transform="translate(98.9 11.9) scale(0.1) scale(1 -1)">X</text>
<text id="0x218cef0" class="l67t5" text-anchor="middle" dominant-baseline="central" transform="translate(98.9 15.3) scale(0.1) scale(1 -1)">X</text>
<text id="0x217ff10" class="l64t59" text-anchor="middle" dominant-baseline="central" transform="translate(2.35 0) scale(0.1) scale(1 -1)">VNB</text>
<text id="0x1eedc80" class="l64t5" text-anchor="middle" dominant-baseline="central" transform="translate(2.35 27.2) scale(0.1) scale(1 -1)">VPB</text>
<text id="0x1eab9d0" class="l68t5" text-anchor="middle" dominant-baseline="central" transform="translate(2.3 0) scale(0.1) scale(1 -1)">VGND</text>
<text id="0x1f0b8e0" class="l68t5" text-anchor="middle" dominant-baseline="central" transform="translate(2.3 27.2) scale(0.1) scale(1 -1)">VPWR</text>
<text id="0x21c1090" class="l83t44" text-anchor="start" dominant-baseline="text-before-edge" transform="translate(0 0) rotate(90) scale(0.1) scale(1 -1)">buf_16</text>
</g>
</svg>