<?xml version="1.0" encoding="UTF-8"?>
<svg xmlns="http://www.w3.org/2000/svg" xmlns:xlink="http://www.w3.org/1999/xlink" width="115.5" height="42.5" viewBox="-7.15 -34.85 115.5 42.5">
<defs>
<style type="text/css">
.l67d44 {stroke: #875692; fill: #875692; fill-opacity: 0.5;}
.l122d16 {stroke: #F6A600; fill: #F6A600; fill-opacity: 0.5;}
.l93d44 {stroke: #008856; fill: #008856; fill-opacity: 0.5;}
.l78d44 {stroke: #F6A600; fill: #F6A600; fill-opacity: 0.5;}
.l236d0 {stroke: #E25822; fill: #E25822; fill-opacity: 0.5;}
.l66d44 {stroke: #F3C300; fill: #F3C300; fill-opacity: 0.5;}
.l95d20 {stroke: #654522; fill: #654522; fill-opacity: 0.5;}
.l94d20 {stroke: #8DB600; fill: #8DB600; fill-opacity: 0.5;}
.l65d20 {stroke: #008856; fill: #008856; fill-opacity: 0.5;}
.l68d16 {stroke: #E25822; fill: #E25822; fill-opacity: 0.5;}
.l81d4 {stroke: #882D17; fill: #882D17; fill-opacity: 0.5;}
.l66d20 {stroke: #E68FAC; fill: #E68FAC; fill-opacity: 0.5;}
.l67d20 {stroke: #0067A5; fill: #0067A5; fill-opacity: 0.5;}
.l64d16 {stroke: #DCD300; fill: #DCD300; fill-opacity: 0.5;}
.l64d20 {stroke: #848482; fill: #848482; fill-opacity: 0.5;}
.l67d16 {stroke: #654522; fill: #654522; fill-opacity: 0.5;}
.l68d20 {stroke: #F99379; fill: #F99379; fill-opacity: 0.5;}
.l64t5 {stroke: none; fill: #604E97;}
.l67t5 {stroke: none; fill: #DCD300;}
.l68t5 {stroke: none; fill: #882D17;}
.l83t44 {stroke: none; fill: #654522;}
.l64t59 {stroke: none; fill: #B3446C;}
</style>
</defs>
<rect x="-7.15" y="-34.85" width="115.5" height="42.5" fill="#222222" stroke="none"/>
<g id="sky130_fd_sc_hd__buf_16" transform="scale(1 -1)">
<polygon id="0xc68d30" class="l236d0" points="0,0 101.2,0 101.2,27.2 0,27.2"/>
<polygon id="0xfbf6c0" class="l122d16" points="1.5,-0.85 3.2,-0.85 3.2,0.85 1.5,0.85"/>
<polygon id="0xca6890" class="l64d16" points="1.5,26.35 3.2,26.35 3.2,28.05 1.5,28.05"/>
<polygon id="0xfd0fb0" class="l68d16" points="1.5,-0.85 3.2,-0.85 3.2,0.85 1.5,0.85"/>
<polygon id="0xfd1020" class="l68d16" points="1.5,26.35 3.2,26.35 3.2,28.05 1.5,28.05"/>
<polygon id="0xfb9260" class="l65d20" points="1.35,14.85 96.25,14.85 96.25,24.85 1.35,24.85"/>
<polygon id="0xfec7c0" class="l65d20" points="1.35,2.35 96.25,2.35 96.25,8.85 1.35,8.85"/>
<polygon id="0xd5dd30" class="l67d44" points="84.25,26.35 85.95,26.35 85.95,28.05 84.25,28.05"/>
<polygon id="0xff6080" class="l67d44" points="84.25,-0.85 85.95,-0.85 85.95,0.85 84.25,0.85"/>
<polygon id="0xc65790" class="l67d44" points="1.45,26.35 3.15,26.35 3.15,28.05 1.45,28.05"/>
<polygon id="0x100a0d0" class="l67d44" points="1.45,-0.85 3.15,-0.85 3.15,0.85 1.45,0.85"/>
<polygon id="0xcdfa20" class="l67d44" points="6.05,26.35 7.75,26.35 7.75,28.05 6.05,28.05"/>
<polygon id="0xfb9e50" class="l67d44" points="6.05,-0.85 7.75,-0.85 7.75,0.85 6.05,0.85"/>
<polygon id="0xdbe2b0" class="l67d44" points="10.65,26.35 12.35,26.35 12.35,28.05 10.65,28.05"/>
<polygon id="0xdbe320" class="l67d44" points="10.65,-0.85 12.35,-0.85 12.35,0.85 10.65,0.85"/>
<polygon id="0xdb2ae0" class="l67d44" points="15.25,26.35 16.95,26.35 16.95,28.05 15.25,28.05"/>
<polygon id="0xdb2bb0" class="l67d44" points="15.25,-0.85 16.95,-0.85 16.95,0.85 15.25,0.85"/>
<polygon id="0xe2f3b0" class="l67d44" points="19.85,26.35 21.55,26.35 21.55,28.05 19.85,28.05"/>
<polygon id="0xef4140" class="l67d44" points="19.85,-0.85 21.55,-0.85 21.55,0.85 19.85,0.85"/>
<polygon id="0xef4210" class="l67d44" points="24.45,26.35 26.15,26.35 26.15,28.05 24.45,28.05"/>
<polygon id="0xf0d020" class="l67d44" points="24.45,-0.85 26.15,-0.85 26.15,0.85 24.45,0.85"/>
<polygon id="0xfd3630" class="l67d44" points="29.05,26.35 30.75,26.35 30.75,28.05 29.05,28.05"/>
<polygon id="0xfd3700" class="l67d44" points="29.05,-0.85 30.75,-0.85 30.75,0.85 29.05,0.85"/>
<polygon id="0x1023520" class="l67d44" points="33.65,26.35 35.35,26.35 35.35,28.05 33.65,28.05"/>
<polygon id="0xfcc760" class="l67d44" points="33.65,-0.85 35.35,-0.85 35.35,0.85 33.65,0.85"/>
<polygon id="0xfcc830" class="l67d44" points="38.25,26.35 39.95,26.35 39.95,28.05 38.25,28.05"/>
<polygon id="0xfcf120" class="l67d44" points="38.25,-0.85 39.95,-0.85 39.95,0.85 38.25,0.85"/>
<polygon id="0xe60450" class="l67d44" points="42.85,26.35 44.55,26.35 44.55,28.05 42.85,28.05"/>
<polygon id="0xe60520" class="l67d44" points="42.85,-0.85 44.55,-0.85 44.55,0.85 42.85,0.85"/>
<polygon id="0xcff510" class="l67d44" points="47.45,26.35 49.15,26.35 49.15,28.05 47.45,28.05"/>
<polygon id="0xd86a80" class="l67d44" points="47.45,-0.85 49.15,-0.85 49.15,0.85 47.45,0.85"/>
<polygon id="0xd86b50" class="l67d44" points="52.05,26.35 53.75,26.35 53.75,28.05 52.05,28.05"/>
<polygon id="0xd9d760" class="l67d44" points="52.05,-0.85 53.75,-0.85 53.75,0.85 52.05,0.85"/>
<polygon id="0xe26440" class="l67d44" points="56.65,26.35 58.35,26.35 58.35,28.05 56.65,28.05"/>
<polygon id="0xe26510" class="l67d44" points="56.65,-0.85 58.35,-0.85 58.35,0.85 56.65,0.85"/>
<polygon id="0xd960d0" class="l67d44" points="61.25,26.35 62.95,26.35 62.95,28.05 61.25,28.05"/>
<polygon id="0xe1b620" class="l67d44" points="61.25,-0.85 62.95,-0.85 62.95,0.85 61.25,0.85"/>
<polygon id="0xe1b6f0" class="l67d44" points="65.85,26.35 67.55,26.35 67.55,28.05 65.85,28.05"/>
<polygon id="0xfc26b0" class="l67d44" points="65.85,-0.85 67.55,-0.85 67.55,0.85 65.85,0.85"/>
<polygon id="0xf9bdb0" class="l67d44" points="70.45,26.35 72.15,26.35 72.15,28.05 70.45,28.05"/>
<polygon id="0xf9be80" class="l67d44" points="70.45,-0.85 72.15,-0.85 72.15,0.85 70.45,0.85"/>
<polygon id="0xd3a9b0" class="l67d44" points="75.05,26.35 76.75,26.35 76.75,28.05 75.05,28.05"/>
<polygon id="0xc8b870" class="l67d44" points="75.05,-0.85 76.75,-0.85 76.75,0.85 75.05,0.85"/>
<polygon id="0xc8b940" class="l67d44" points="79.65,26.35 81.35,26.35 81.35,28.05 79.65,28.05"/>
<polygon id="0xe9f450" class="l67d44" points="79.65,-0.85 81.35,-0.85 81.35,0.85 79.65,0.85"/>
<polygon id="0xef6c30" class="l67d44" points="88.85,26.35 90.55,26.35 90.55,28.05 88.85,28.05"/>
<polygon id="0xef6d00" class="l67d44" points="88.85,-0.85 90.55,-0.85 90.55,0.85 88.85,0.85"/>
<polygon id="0xfe5c60" class="l67d44" points="93.45,26.35 95.15,26.35 95.15,28.05 93.45,28.05"/>
<polygon id="0xd39120" class="l67d44" points="93.45,-0.85 95.15,-0.85 95.15,0.85 93.45,0.85"/>
<polygon id="0xd391f0" class="l67d44" points="98.05,26.35 99.75,26.35 99.75,28.05 98.05,28.05"/>
<polygon id="0xe3dd40" class="l67d44" points="98.05,-0.85 99.75,-0.85 99.75,0.85 98.05,0.85"/>
<polygon id="0xf2c6a0" class="l81d4" points="0,0 101.2,0 101.2,27.2 0,27.2"/>
<polygon id="0xf2c710" class="l94d20" points="0,13.55 101.2,13.55 101.2,29.1 0,29.1"/>
<polygon id="0xfdc780" class="l93d44" points="0,-1.9 101.2,-1.9 101.2,10.15 0,10.15"/>
<polygon id="0xfdc850" class="l95d20" points="0,9.75 101.2,9.75 101.2,13.45 0,13.45"/>
<polygon id="0xcdf1a0" class="l66d20" points="26.45,26.15 24.95,26.15 24.95,12.95 22.25,12.95 22.25,26.15 20.75,26.15 20.75,12.95 18.05,12.95 18.05,26.15 16.55,26.15 16.55,12.95 13.85,12.95 13.85,26.15 12.35,26.15 12.35,12.95 9.65,12.95 9.65,26.15 8.15,26.15 8.15,12.95 5.45,12.95 5.45,26.15 3.95,26.15 3.95,1.05 5.45,1.05 5.45,10.25 8.15,10.25 8.15,1.05 9.65,1.05 9.65,10.25 12.35,10.25 12.35,1.05 13.85,1.05 13.85,10.25 16.55,10.25 16.55,1.05 18.05,1.05 18.05,10.25 20.75,10.25 20.75,1.05 22.25,1.05 22.25,10.25 24.95,10.25 24.95,1.05 26.45,1.05"/>
<polygon id="0xcdf210" class="l66d20" points="93.65,26.15 92.15,26.15 92.15,12.95 89.45,12.95 89.45,26.15 87.95,26.15 87.95,12.95 85.25,12.95 85.25,26.15 83.75,26.15 83.75,12.95 81.05,12.95 81.05,26.15 79.55,26.15 79.55,12.95 76.85,12.95 76.85,26.15 75.35,26.15 75.35,12.95 72.65,12.95 72.65,26.15 71.15,26.15 71.15,12.95 68.45,12.95 68.45,26.15 66.95,26.15 66.95,12.95 64.25,12.95 64.25,26.15 62.75,26.15 62.75,12.95 60.05,12.95 60.05,26.15 58.55,26.15 58.55,12.95 55.85,12.95 55.85,26.15 54.35,26.15 54.35,12.95 51.65,12.95 51.65,26.15 50.15,26.15 50.15,12.95 47.45,12.95 47.45,26.15 45.95,26.15 45.95,12.95 43.25,12.95 43.25,26.15 41.75,26.15 41.75,12.95 39.05,12.95 39.05,26.15 37.55,26.15 37.55,12.95 34.85,12.95 34.85,26.15 33.35,26.15 33.35,12.95 30.65,12.95 30.65,26.15 29.15,26.15 29.15,1.05 30.65,1.05 30.65,10.25 33.35,10.25 33.35,1.05 34.85,1.05 34.85,10.25 37.55,10.25 37.55,1.05 39.05,1.05 39.05,10.25 41.75,10.25 41.75,1.05 43.25,1.05 43.25,10.25 45.95,10.25 45.95,1.05 47.45,1.05 47.45,10.25 50.15,10.25 50.15,1.05 51.65,1.05 51.65,10.25 54.35,10.25 54.35,1.05 55.85,1.05 55.85,10.25 58.55,10.25 58.55,1.05 60.05,1.05 60.05,10.25 62.75,10.25 62.75,1.05 64.25,1.05 64.25,10.25 66.95,10.25 66.95,1.05 68.45,1.05 68.45,10.25 71.15,10.25 71.15,1.05 72.65,1.05 72.65,10.25 75.35,10.25 75.35,1.05 76.85,1.05 76.85,10.25 79.55,10.25 79.55,1.05 81.05,1.05 81.05,10.25 83.75,10.25 83.75,1.05 85.25,1.05 85.25,10.25 87.95,10.25 87.95,1.05 89.45,1.05 89.45,10.25 92.15,10.25 92.15,1.05 93.65,1.05"/>
<polygon id="0xd1ef90" class="l67d20" points="101.2,0.85 95.85,0.85 95.85,5.65 94.15,5.65 94.15,0.85 87.45,0.85 87.45,5.65 85.75,5.65 85.75,0.85 79.05,0.85 79.05,5.65 77.35,5.65 77.35,0.85 70.65,0.85 70.65,5.65 68.95,5.65 68.95,0.85 62.25,0.85 62.25,5.65 60.55,5.65 60.55,0.85 53.85,0.85 53.85,5.65 52.15,5.65 52.15,0.85 45.45,0.85 45.45,5.65 43.75,5.65 43.75,0.85 37.05,0.85 37.05,5.65 35.35,5.65 35.35,0.85 28.65,0.85 28.65,5.65 26.95,5.65 26.95,0.85 20.25,0.85 20.25,5.65 18.55,5.65 18.55,0.85 11.85,0.85 11.85,5.65 10.15,5.65 10.15,0.85 3.45,0.85 3.45,9.05 1.75,9.05 1.75,0.85 0,0.85 0,-0.85 101.2,-0.85"/>
<polygon id="0xd1f000" class="l67d20" points="101.2,28.05 0,28.05 0,26.35 1.75,26.35 1.75,14.45 3.45,14.45 3.45,26.35 10.15,26.35 10.15,18.35 11.85,18.35 11.85,26.35 18.55,26.35 18.55,18.35 20.25,18.35 20.25,26.35 26.95,26.35 26.95,18.35 28.65,18.35 28.65,26.35 35.35,26.35 35.35,18.35 37.05,18.35 37.05,26.35 43.75,26.35 43.75,18.35 45.45,18.35 45.45,26.35 52.15,26.35 52.15,18.35 53.85,18.35 53.85,26.35 60.55,26.35 60.55,18.35 62.25,18.35 62.25,26.35 68.95,26.35 68.95,18.35 70.65,18.35 70.65,26.35 77.35,26.35 77.35,18.35 79.05,18.35 79.05,26.35 85.75,26.35 85.75,18.35 87.45,18.35 87.45,26.35 94.15,26.35 94.15,18.35 95.85,18.35 95.85,26.35 101.2,26.35"/>
<polygon id="0xd1f070" class="l67d20" points="0.85,10.75 24.85,10.75 24.85,12.75 0.85,12.75"/>
<polygon id="0xdc9b40" class="l67d20" points="94.1,12.75 28.65,12.75 28.65,16.15 25.25,16.15 25.25,24.65 21.95,24.65 21.95,16.15 16.85,16.15 16.85,24.65 13.55,24.65 13.55,16.15 8.45,16.15 8.45,24.65 5.15,24.65 5.15,14.45 26.9,14.45 26.9,9.05 5.15,9.05 5.15,2.6 8.45,2.6 8.45,7.35 13.55,7.35 13.55,2.6 16.85,2.6 16.85,7.35 21.95,7.35 21.95,2.6 25.25,2.6 25.25,7.35 28.65,7.35 28.65,10.75 94.1,10.75"/>
<polygon id="0xdc9bb0" class="l67d20" points="100.35,23.6 97.6,23.6 97.6,16.15 92.45,16.15 92.45,24.65 89.15,24.65 89.15,16.15 84.05,16.15 84.05,24.65 80.75,24.65 80.75,16.15 75.65,16.15 75.65,24.65 72.35,24.65 72.35,16.15 67.25,16.15 67.25,24.65 63.95,24.65 63.95,16.15 58.85,16.15 58.85,24.65 55.55,24.65 55.55,16.15 50.45,16.15 50.45,24.65 47.15,24.65 47.15,16.15 42.05,16.15 42.05,24.65 38.75,24.65 38.75,16.15 33.65,16.15 33.65,24.65 30.35,24.65 30.35,14.45 96.55,14.45 96.55,9.05 30.35,9.05 30.35,2.55 32.85,2.55 32.85,2.6 33.65,2.6 33.65,7.35 38.75,7.35 38.75,2.6 39.55,2.6 39.55,2.55 41.25,2.55 41.25,2.6 42.05,2.6 42.05,7.35 47.15,7.35 47.15,2.6 47.95,2.6 47.95,2.55 49.65,2.55 49.65,2.6 50.45,2.6 50.45,7.35 55.55,7.35 55.55,2.6 58.85,2.6 58.85,7.35 63.95,7.35 63.95,2.6 67.25,2.6 67.25,7.35 72.35,7.35 72.35,2.6 75.65,2.6 75.65,7.35 80.75,7.35 80.75,2.6 84.05,2.6 84.05,7.35 89.15,7.35 89.15,2.6 92.45,2.6 92.45,7.35 97.6,7.35 97.6,3.65 100.35,3.65"/>
<polygon id="0xdc9c20" class="l66d44" points="14.35,18.85 16.05,18.85 16.05,20.55 14.35,20.55"/>
<polygon id="0xfd8050" class="l66d44" points="14.35,15.45 16.05,15.45 16.05,17.15 14.35,17.15"/>
<polygon id="0xfd8120" class="l66d44" points="14.35,6.55 16.05,6.55 16.05,8.25 14.35,8.25"/>
<polygon id="0xce4cf0" class="l66d44" points="14.35,3.15 16.05,3.15 16.05,4.85 14.35,4.85"/>
<polygon id="0xce4dc0" class="l66d44" points="15.35,10.75 17.05,10.75 17.05,12.45 15.35,12.45"/>
<polygon id="0xdcb970" class="l66d44" points="18.55,22.55 20.25,22.55 20.25,24.25 18.55,24.25"/>
<polygon id="0xdcba40" class="l66d44" points="18.55,19.15 20.25,19.15 20.25,20.85 18.55,20.85"/>
<polygon id="0xdbada0" class="l66d44" points="18.55,3.15 20.25,3.15 20.25,4.85 18.55,4.85"/>
<polygon id="0xdbae70" class="l66d44" points="18.75,10.75 20.45,10.75 20.45,12.45 18.75,12.45"/>
<polygon id="0xdffb80" class="l66d44" points="22.15,10.75 23.85,10.75 23.85,12.45 22.15,12.45"/>
<polygon id="0xdffc50" class="l66d44" points="22.75,22.25 24.45,22.25 24.45,23.95 22.75,23.95"/>
<polygon id="0xea2e20" class="l66d44" points="22.75,18.85 24.45,18.85 24.45,20.55 22.75,20.55"/>
<polygon id="0xea2ef0" class="l66d44" points="22.75,15.45 24.45,15.45 24.45,17.15 22.75,17.15"/>
<polygon id="0xf5ede0" class="l66d44" points="22.75,6.55 24.45,6.55 24.45,8.25 22.75,8.25"/>
<polygon id="0xf5eeb0" class="l66d44" points="22.75,3.15 24.45,3.15 24.45,4.85 22.75,4.85"/>
<polygon id="0xcdcec0" class="l66d44" points="26.95,22.55 28.65,22.55 28.65,24.25 26.95,24.25"/>
<polygon id="0xcdcf90" class="l66d44" points="39.55,18.85 41.25,18.85 41.25,20.55 39.55,20.55"/>
<polygon id="0xd9a830" class="l66d44" points="39.55,15.45 41.25,15.45 41.25,17.15 39.55,17.15"/>
<polygon id="0xd9a900" class="l66d44" points="39.55,6.55 41.25,6.55 41.25,8.25 39.55,8.25"/>
<polygon id="0xe7e000" class="l66d44" points="39.55,3.15 41.25,3.15 41.25,4.85 39.55,4.85"/>
<polygon id="0xe7e0d0" class="l66d44" points="40.35,10.75 42.05,10.75 42.05,12.45 40.35,12.45"/>
<polygon id="0xeaab40" class="l66d44" points="43.75,22.55 45.45,22.55 45.45,24.25 43.75,24.25"/>
<polygon id="0xeaac10" class="l66d44" points="43.75,19.15 45.45,19.15 45.45,20.85 43.75,20.85"/>
<polygon id="0xef57d0" class="l66d44" points="43.75,10.75 45.45,10.75 45.45,12.45 43.75,12.45"/>
<polygon id="0xef58a0" class="l66d44" points="43.75,3.15 45.45,3.15 45.45,4.85 43.75,4.85"/>
<polygon id="0xf136a0" class="l66d44" points="47.15,10.75 48.85,10.75 48.85,12.45 47.15,12.45"/>
<polygon id="0xf13770" class="l66d44" points="47.95,22.25 49.65,22.25 49.65,23.95 47.95,23.95"/>
<polygon id="0xfc42e0" class="l66d44" points="47.95,18.85 49.65,18.85 49.65,20.55 47.95,20.55"/>
<polygon id="0xfc43b0" class="l66d44" points="47.95,15.45 49.65,15.45 49.65,17.15 47.95,17.15"/>
<polygon id="0xceef20" class="l66d44" points="47.95,6.55 49.65,6.55 49.65,8.25 47.95,8.25"/>
<polygon id="0xceeff0" class="l66d44" points="47.95,3.15 49.65,3.15 49.65,4.85 47.95,4.85"/>
<polygon id="0xd713a0" class="l66d44" points="50.55,10.75 52.25,10.75 52.25,12.45 50.55,12.45"/>
<polygon id="0xd71470" class="l66d44" points="52.15,22.55 53.85,22.55 53.85,24.25 52.15,24.25"/>
<polygon id="0xf682b0" class="l66d44" points="52.15,19.15 53.85,19.15 53.85,20.85 52.15,20.85"/>
<polygon id="0xf68380" class="l66d44" points="52.15,3.15 53.85,3.15 53.85,4.85 52.15,4.85"/>
<polygon id="0xfd1c70" class="l66d44" points="53.95,10.75 55.65,10.75 55.65,12.45 53.95,12.45"/>
<polygon id="0xfd1d40" class="l66d44" points="56.35,22.25 58.05,22.25 58.05,23.95 56.35,23.95"/>
<polygon id="0xfc82e0" class="l66d44" points="56.35,18.85 58.05,18.85 58.05,20.55 56.35,20.55"/>
<polygon id="0xfc83b0" class="l66d44" points="56.35,15.45 58.05,15.45 58.05,17.15 56.35,17.15"/>
<polygon id="0xd4dbb0" class="l66d44" points="56.35,6.55 58.05,6.55 58.05,8.25 56.35,8.25"/>
<polygon id="0xd4dc80" class="l66d44" points="56.35,3.15 58.05,3.15 58.05,4.85 56.35,4.85"/>
<polygon id="0xddc350" class="l66d44" points="57.35,10.75 59.05,10.75 59.05,12.45 57.35,12.45"/>
<polygon id="0xddc420" class="l66d44" points="60.55,22.55 62.25,22.55 62.25,24.25 60.55,24.25"/>
<polygon id="0xda1580" class="l66d44" points="60.55,19.15 62.25,19.15 62.25,20.85 60.55,20.85"/>
<polygon id="0xda1650" class="l66d44" points="60.55,3.15 62.25,3.15 62.25,4.85 60.55,4.85"/>
<polygon id="0xe1cdd0" class="l66d44" points="60.75,10.75 62.45,10.75 62.45,12.45 60.75,12.45"/>
<polygon id="0xe1cea0" class="l66d44" points="64.15,10.75 65.85,10.75 65.85,12.45 64.15,12.45"/>
<polygon id="0xf25440" class="l66d44" points="64.75,22.25 66.45,22.25 66.45,23.95 64.75,23.95"/>
<polygon id="0xf25510" class="l66d44" points="64.75,18.85 66.45,18.85 66.45,20.55 64.75,20.55"/>
<polygon id="0xf61830" class="l66d44" points="64.75,15.45 66.45,15.45 66.45,17.15 64.75,17.15"/>
<polygon id="0xf61900" class="l66d44" points="64.75,6.55 66.45,6.55 66.45,8.25 64.75,8.25"/>
<polygon id="0xcdc6d0" class="l66d44" points="64.75,3.15 66.45,3.15 66.45,4.85 64.75,4.85"/>
<polygon id="0xcdc7a0" class="l66d44" points="67.55,10.75 69.25,10.75 69.25,12.45 67.55,12.45"/>
<polygon id="0xec4870" class="l66d44" points="68.95,22.55 70.65,22.55 70.65,24.25 68.95,24.25"/>
<polygon id="0xec4940" class="l66d44" points="68.95,19.15 70.65,19.15 70.65,20.85 68.95,20.85"/>
<polygon id="0xeb0870" class="l66d44" points="94.15,3.15 95.85,3.15 95.85,4.85 94.15,4.85"/>
<polygon id="0xeb0940" class="l66d44" points="5.95,18.85 7.65,18.85 7.65,20.55 5.95,20.55"/>
<polygon id="0xfbb7d0" class="l66d44" points="5.95,15.45 7.65,15.45 7.65,17.15 5.95,17.15"/>
<polygon id="0xfbb8a0" class="l66d44" points="5.95,6.55 7.65,6.55 7.65,8.25 5.95,8.25"/>
<polygon id="0xf9ab10" class="l66d44" points="5.95,3.15 7.65,3.15 7.65,4.85 5.95,4.85"/>
<polygon id="0xf9abe0" class="l66d44" points="8.55,10.75 10.25,10.75 10.25,12.45 8.55,12.45"/>
<polygon id="0xd50cd0" class="l66d44" points="10.15,22.55 11.85,22.55 11.85,24.25 10.15,24.25"/>
<polygon id="0xd50da0" class="l66d44" points="10.15,19.15 11.85,19.15 11.85,20.85 10.15,20.85"/>
<polygon id="0xdae080" class="l66d44" points="10.15,3.15 11.85,3.15 11.85,4.85 10.15,4.85"/>
<polygon id="0xdae150" class="l66d44" points="11.95,10.75 13.65,10.75 13.65,12.45 11.95,12.45"/>
<polygon id="0xda3b90" class="l66d44" points="14.35,22.25 16.05,22.25 16.05,23.95 14.35,23.95"/>
<polygon id="0xda3c00" class="l66d44" points="68.95,3.15 70.65,3.15 70.65,4.85 68.95,4.85"/>
<polygon id="0xda3cd0" class="l66d44" points="70.95,10.75 72.65,10.75 72.65,12.45 70.95,12.45"/>
<polygon id="0xe30510" class="l66d44" points="73.15,22.25 74.85,22.25 74.85,23.95 73.15,23.95"/>
<polygon id="0xe305e0" class="l66d44" points="73.15,18.85 74.85,18.85 74.85,20.55 73.15,20.55"/>
<polygon id="0xffc440" class="l66d44" points="73.15,15.45 74.85,15.45 74.85,17.15 73.15,17.15"/>
<polygon id="0xffc510" class="l66d44" points="73.15,6.55 74.85,6.55 74.85,8.25 73.15,8.25"/>
<polygon id="0x10221e0" class="l66d44" points="73.15,3.15 74.85,3.15 74.85,4.85 73.15,4.85"/>
<polygon id="0x1022250" class="l66d44" points="74.35,10.75 76.05,10.75 76.05,12.45 74.35,12.45"/>
<polygon id="0x1022320" class="l66d44" points="77.35,22.55 79.05,22.55 79.05,24.25 77.35,24.25"/>
<polygon id="0x102ec20" class="l66d44" points="77.35,19.15 79.05,19.15 79.05,20.85 77.35,20.85"/>
<polygon id="0x102ecf0" class="l66d44" points="77.35,3.15 79.05,3.15 79.05,4.85 77.35,4.85"/>
<polygon id="0x102edc0" class="l66d44" points="77.75,10.75 79.45,10.75 79.45,12.45 77.75,12.45"/>
<polygon id="0x102ee90" class="l66d44" points="81.15,10.75 82.85,10.75 82.85,12.45 81.15,12.45"/>
<polygon id="0x102ef60" class="l66d44" points="81.55,22.25 83.25,22.25 83.25,23.95 81.55,23.95"/>
<polygon id="0x102f030" class="l66d44" points="81.55,18.85 83.25,18.85 83.25,20.55 81.55,20.55"/>
<polygon id="0x102f100" class="l66d44" points="81.55,15.45 83.25,15.45 83.25,17.15 81.55,17.15"/>
<polygon id="0x102f1d0" class="l66d44" points="81.55,6.55 83.25,6.55 83.25,8.25 81.55,8.25"/>
<polygon id="0x102f2a0" class="l66d44" points="81.55,3.15 83.25,3.15 83.25,4.85 81.55,4.85"/>
<polygon id="0x102f370" class="l66d44" points="84.55,10.75 86.25,10.75 86.25,12.45 84.55,12.45"/>
<polygon id="0x102f440" class="l66d44" points="85.75,22.55 87.45,22.55 87.45,24.25 85.75,24.25"/>
<polygon id="0x102f510" class="l66d44" points="85.75,19.15 87.45,19.15 87.45,20.85 85.75,20.85"/>
<polygon id="0x102f5e0" class="l66d44" points="85.75,3.15 87.45,3.15 87.45,4.85 85.75,4.85"/>
<polygon id="0x102f6b0" class="l66d44" points="87.95,10.75 89.65,10.75 89.65,12.45 87.95,12.45"/>
<polygon id="0x102f780" class="l66d44" points="89.95,22.25 91.65,22.25 91.65,23.95 89.95,23.95"/>
<polygon id="0x102f850" class="l66d44" points="89.95,18.85 91.65,18.85 91.65,20.55 89.95,20.55"/>
<polygon id="0x102f920" class="l66d44" points="89.95,15.45 91.65,15.45 91.65,17.15 89.95,17.15"/>
<polygon id="0x102f9f0" class="l66d44" points="89.95,6.55 91.65,6.55 91.65,8.25 89.95,8.25"/>
<polygon id="0x102fac0" class="l66d44" points="89.95,3.15 91.65,3.15 91.65,4.85 89.95,4.85"/>
<polygon id="0x102fb90" class="l66d44" points="91.35,10.75 93.05,10.75 93.05,12.45 91.35,12.45"/>
<polygon id="0x102fc60" class="l66d44" points="94.15,22.55 95.85,22.55 95.85,24.25 94.15,24.25"/>
<polygon id="0x102fd30" class="l66d44" points="94.15,19.15 95.85,19.15 95.85,20.85 94.15,20.85"/>
<polygon id="0x102fe00" class="l66d44" points="1.75,22.55 3.45,22.55 3.45,24.25 1.75,24.25"/>
<polygon id="0x102fed0" class="l66d44" points="1.75,19.15 3.45,19.15 3.45,20.85 1.75,20.85"/>
<polygon id="0x102ffa0" class="l66d44" points="1.75,15.75 3.45,15.75 3.45,17.45 1.75,17.45"/>
<polygon id="0x1030070" class="l66d44" points="1.75,6.55 3.45,6.55 3.45,8.25 1.75,8.25"/>
<polygon id="0x1030140" class="l66d44" points="1.75,3.15 3.45,3.15 3.45,4.85 1.75,4.85"/>
<polygon id="0x1030210" class="l66d44" points="5.15,10.75 6.85,10.75 6.85,12.45 5.15,12.45"/>
<polygon id="0x10302e0" class="l66d44" points="5.95,22.25 7.65,22.25 7.65,23.95 5.95,23.95"/>
<polygon id="0x10303b0" class="l66d44" points="35.35,22.55 37.05,22.55 37.05,24.25 35.35,24.25"/>
<polygon id="0x1030480" class="l66d44" points="35.35,19.15 37.05,19.15 37.05,20.85 35.35,20.85"/>
<polygon id="0x1030550" class="l66d44" points="35.35,3.15 37.05,3.15 37.05,4.85 35.35,4.85"/>
<polygon id="0x1030620" class="l66d44" points="36.95,10.75 38.65,10.75 38.65,12.45 36.95,12.45"/>
<polygon id="0x10306f0" class="l66d44" points="39.55,22.25 41.25,22.25 41.25,23.95 39.55,23.95"/>
<polygon id="0x10307c0" class="l66d44" points="26.95,19.15 28.65,19.15 28.65,20.85 26.95,20.85"/>
<polygon id="0x1030890" class="l66d44" points="26.95,3.15 28.65,3.15 28.65,4.85 26.95,4.85"/>
<polygon id="0x1030960" class="l66d44" points="30.15,10.75 31.85,10.75 31.85,12.45 30.15,12.45"/>
<polygon id="0x1030a30" class="l66d44" points="31.15,22.25 32.85,22.25 32.85,23.95 31.15,23.95"/>
<polygon id="0x1030b00" class="l66d44" points="31.15,18.85 32.85,18.85 32.85,20.55 31.15,20.55"/>
<polygon id="0x1030bd0" class="l66d44" points="31.15,15.45 32.85,15.45 32.85,17.15 31.15,17.15"/>
<polygon id="0x1030ca0" class="l66d44" points="31.15,6.55 32.85,6.55 32.85,8.25 31.15,8.25"/>
<polygon id="0x1030d70" class="l66d44" points="31.15,3.15 32.85,3.15 32.85,4.85 31.15,4.85"/>
<polygon id="0x1030e40" class="l66d44" points="33.55,10.75 35.25,10.75 35.25,12.45 33.55,12.45"/>
<polygon id="0x1030f10" class="l64d20" points="-1.9,13.05 103.1,13.05 103.1,29.1 -1.9,29.1"/>
<polygon id="0x1030fe0" class="l78d44" points="0,12.5 101.2,12.5 101.2,27.2 0,27.2"/>
<polygon id="0x10310b0" class="l67d16" points="15.3,11.05 17,11.05 17,12.75 15.3,12.75"/>
<polygon id="0x1031180" class="l67d16" points="19.9,11.05 21.6,11.05 21.6,12.75 19.9,12.75"/>
<polygon id="0x1031250" class="l67d16" points="98.05,14.45 99.75,14.45 99.75,16.15 98.05,16.15"/>
<polygon id="0x1031320" class="l67d16" points="98.05,11.05 99.75,11.05 99.75,12.75 98.05,12.75"/>
<polygon id="0x102c380" class="l68d20" points="0,2.4 0,-2.4 101.2,-2.4 101.2,2.4"/>
<polygon id="0x102c380" class="l68d20" points="0,29.6 0,24.8 101.2,24.8 101.2,29.6"/>
<text id="0x101c6d0" class="l67t5" text-anchor="middle" dominant-baseline="central" transform="translate(20.75 11.9) scale(0.1) scale(1 -1)">A</text>
<text id="0xffcd00" class="l67t5" text-anchor="middle" dominant-baseline="central" transform="translate(16.15 11.9) scale(0.1) scale(1 -1)">A</text>
<text id="0xfefd20" class="l67t5" text-anchor="middle" dominant-baseline="central" transform="translate(98.9 11.9) scale(0.1) scale(1 -1)">X</text>
<text id="0xfa7730" class="l67t5" text-anchor="middle" dominant-baseline="central" transform="translate(98.9 15.3) scale(0.1) scale(1 -1)">X</text>
<text id="0xd5dc80" class="l64t59" text-anchor="middle" dominant-baseline="central" transform="translate(2.35 0) scale(0.1) scale(1 -1)">VNB</text>
<text id="0xd1b9d0" class="l64t5" text-anchor="middle" dominant-baseline="central" transform="translate(2.35 27.2) scale(0.1) scale(1 -1)">VPB</text>
<text id="0xd7baf0" class="l68t5" text-anchor="middle" dominant-baseline="central" transform="translate(2.3 0) scale(0.1) scale(1 -1)">VGND</text>
<text id="0xda6630" class="l68t5" text-anchor="middle" dominant-baseline="central" transform="translate(2.3 27.2) scale(0.1) scale(1 -1)">VPWR</text>
<text id="0x10313f0" class="l83t44" text-anchor="start" dominant-baseline="text-before-edge" transform="translate(0 0) rotate(90) scale(0.1) scale(1 -1)">buf_16</text>
</g>
</svg>