<?xml version="1.0" encoding="UTF-8"?>
<svg xmlns="http://www.w3.org/2000/svg" xmlns:xlink="http://www.w3.org/1999/xlink" width="39.6" height="35.6" viewBox="-3.7 -31.4 39.6 35.6">
<defs>
<style type="text/css">
.l67d44 {stroke: #875692; fill: #875692; fill-opacity: 0.5;}
.l122d16 {stroke: #F6A600; fill: #F6A600; fill-opacity: 0.5;}
.l93d44 {stroke: #008856; fill: #008856; fill-opacity: 0.5;}
.l78d44 {stroke: #F6A600; fill: #F6A600; fill-opacity: 0.5;}
.l236d0 {stroke: #E25822; fill: #E25822; fill-opacity: 0.5;}
.l66d44 {stroke: #F3C300; fill: #F3C300; fill-opacity: 0.5;}
.l95d20 {stroke: #654522; fill: #654522; fill-opacity: 0.5;}
.l94d20 {stroke: #8DB600; fill: #8DB600; fill-opacity: 0.5;}
.l65d20 {stroke: #008856; fill: #008856; fill-opacity: 0.5;}
.l68d16 {stroke: #E25822; fill: #E25822; fill-opacity: 0.5;}
.l67d20 {stroke: #0067A5; fill: #0067A5; fill-opacity: 0.5;}
.l66d20 {stroke: #E68FAC; fill: #E68FAC; fill-opacity: 0.5;}
.l64d20 {stroke: #848482; fill: #848482; fill-opacity: 0.5;}
.l64d16 {stroke: #DCD300; fill: #DCD300; fill-opacity: 0.5;}
.l67d16 {stroke: #654522; fill: #654522; fill-opacity: 0.5;}
.l81d4 {stroke: #882D17; fill: #882D17; fill-opacity: 0.5;}
.l68d20 {stroke: #F99379; fill: #F99379; fill-opacity: 0.5;}
.l64t5 {stroke: none; fill: #604E97;}
.l67t5 {stroke: none; fill: #DCD300;}
.l68t5 {stroke: none; fill: #882D17;}
.l83t44 {stroke: none; fill: #654522;}
.l64t59 {stroke: none; fill: #B3446C;}
</style>
</defs>
<rect x="-3.7" y="-31.4" width="39.6" height="35.6" fill="#222222" stroke="none"/>
<g id="sky130_fd_sc_hd__a2111oi_0" transform="scale(1 -1)">
<polygon id="0x1291ad0" class="l236d0" points="0,0 32.2,0 32.2,27.2 0,27.2"/>
<polygon id="0x1274560" class="l122d16" points="1.45,-0.85 3.15,-0.85 3.15,0.85 1.45,0.85"/>
<polygon id="0x1279a20" class="l64d16" points="1.45,26.35 3.15,26.35 3.15,28.05 1.45,28.05"/>
<polygon id="0x1279a90" class="l68d16" points="1.45,26.35 3.15,26.35 3.15,28.05 1.45,28.05"/>
<polygon id="0x1261cd0" class="l68d16" points="1.45,-0.85 3.15,-0.85 3.15,0.85 1.45,0.85"/>
<polygon id="0x1295230" class="l67d20" points="32.2,28.05 0,28.05 0,26.35 20.4,26.35 20.4,22.55 23.7,22.55 23.7,26.35 32.2,26.35"/>
<polygon id="0x129ea90" class="l67d20" points="32.2,0.85 28,0.85 28,4.8 24.7,4.8 24.7,0.85 15.4,0.85 15.4,4.45 12.1,4.45 12.1,0.85 6.15,0.85 6.15,4.65 2.85,4.65 2.85,0.85 0,0.85 0,-0.85 32.2,-0.85"/>
<polygon id="0x129eb00" class="l67d20" points="0.85,7.3 4.35,7.3 4.35,16.55 0.85,16.55"/>
<polygon id="0x12c51a0" class="l67d20" points="9.55,10.55 13.25,10.55 13.25,23.6 9.55,23.6"/>
<polygon id="0x1298790" class="l67d20" points="27.95,6.5 31.35,6.5 31.35,17.35 27.95,17.35"/>
<polygon id="0x1250470" class="l67d20" points="14.95,10.55 18.45,10.55 18.45,17.35 14.95,17.35"/>
<polygon id="0xf10120" class="l67d20" points="20.4,8.85 7.85,8.85 7.85,24.65 3.6,24.65 3.6,18.25 6.05,18.25 6.05,6.35 7.85,6.35 7.85,2.55 10.4,2.55 10.4,6.15 17.1,6.15 17.1,2.8 20.4,2.8"/>
<polygon id="0xf10190" class="l67d20" points="20.35,10.7 20.35,14 23.55,14 23.55,17.35 26.25,17.35 26.25,6.6 23.55,6.6 23.55,10.7"/>
<polygon id="0x112c0a0" class="l67d20" points="28.7,24.65 25.4,24.65 25.4,20.85 18.7,20.85 18.7,24.65 15.4,24.65 15.4,19.05 28.7,19.05"/>
<polygon id="0x12b2b60" class="l66d44" points="25.5,2.75 27.2,2.75 27.2,4.45 25.5,4.45"/>
<polygon id="0xf8ae30" class="l66d44" points="23.75,11.5 25.45,11.5 25.45,13.2 23.75,13.2"/>
<polygon id="0xfaa3b0" class="l66d44" points="2.65,12.3 4.35,12.3 4.35,14 2.65,14"/>
<polygon id="0x12a5770" class="l66d44" points="2.65,8.45 4.35,8.45 4.35,10.15 2.65,10.15"/>
<polygon id="0xfaa480" class="l66d44" points="3.65,2.95 5.35,2.95 5.35,4.65 3.65,4.65"/>
<polygon id="0x1008930" class="l66d44" points="20.35,11.5 22.05,11.5 22.05,13.2 20.35,13.2"/>
<polygon id="0x1042130" class="l66d44" points="21.2,22.55 22.9,22.55 22.9,24.25 21.2,24.25"/>
<polygon id="0x1042200" class="l66d44" points="26.2,22.45 27.9,22.45 27.9,24.15 26.2,24.15"/>
<polygon id="0x10beab0" class="l66d44" points="26.2,19.05 27.9,19.05 27.9,20.75 26.2,20.75"/>
<polygon id="0x10c5df0" class="l66d44" points="28.95,14.1 30.65,14.1 30.65,15.8 28.95,15.8"/>
<polygon id="0x10c5ec0" class="l66d44" points="28.95,10.7 30.65,10.7 30.65,12.4 28.95,12.4"/>
<polygon id="0x126b120" class="l66d44" points="4.4,22.45 6.1,22.45 6.1,24.15 4.4,24.15"/>
<polygon id="0x1244af0" class="l66d44" points="4.4,19.05 6.1,19.05 6.1,20.75 4.4,20.75"/>
<polygon id="0x1244bc0" class="l66d44" points="8.3,3.35 10,3.35 10,5.05 8.3,5.05"/>
<polygon id="0xfe5650" class="l66d44" points="9.55,11.35 11.25,11.35 11.25,13.05 9.55,13.05"/>
<polygon id="0x11a0490" class="l66d44" points="12.9,2.75 14.6,2.75 14.6,4.45 12.9,4.45"/>
<polygon id="0x11a0560" class="l66d44" points="15.25,11.35 16.95,11.35 16.95,13.05 15.25,13.05"/>
<polygon id="0x128e6d0" class="l66d44" points="16.2,22.45 17.9,22.45 17.9,24.15 16.2,24.15"/>
<polygon id="0xfe3dc0" class="l66d44" points="16.2,19.05 17.9,19.05 17.9,20.75 16.2,20.75"/>
<polygon id="0xfd3320" class="l66d44" points="17.6,3.6 19.3,3.6 19.3,5.3 17.6,5.3"/>
<polygon id="0xfe3e90" class="l66d20" points="8.45,26.15 6.95,26.15 6.95,17.7 2.15,17.7 2.15,7.3 6.25,7.3 6.25,1.05 7.75,1.05 7.75,8.8 4.85,8.8 4.85,16.2 8.45,16.2"/>
<polygon id="0x1060c80" class="l66d20" points="12.05,26.15 10.55,26.15 10.55,14.1 8.75,14.1 8.75,10.65 10.55,10.65 10.55,1.05 12.05,1.05"/>
<polygon id="0x1045120" class="l66d20" points="17.65,13.95 15.65,13.95 15.65,26.15 14.15,26.15 14.15,10.55 15.55,10.55 15.55,1.05 17.05,1.05 17.05,10.55 17.65,10.55"/>
<polygon id="0x1045190" class="l66d20" points="26.25,14.1 21.65,14.1 21.65,17.7 19.95,17.7 19.95,26.15 18.45,26.15 18.45,15.95 19.75,15.95 19.75,10.55 19.85,10.55 19.85,1.05 21.35,1.05 21.35,10.9 26.25,10.9"/>
<polygon id="0x12851f0" class="l66d20" points="31.15,17.7 25.25,17.7 25.25,26.15 23.75,26.15 23.75,16.2 28.35,16.2 28.35,8.8 23.45,8.8 23.45,1.05 24.95,1.05 24.95,7.3 31.15,7.3"/>
<polygon id="0x1074660" class="l95d20" points="32.2,16.8 26.65,16.8 26.65,14.45 5.35,14.45 5.35,15 0,15 0,7.45 5.35,7.45 5.35,9.7 32.2,9.7"/>
<polygon id="0x1074790" class="l65d20" points="3.25,2.35 27.8,2.35 27.8,6.55 3.25,6.55"/>
<polygon id="0x1280ac0" class="l65d20" points="4,18.45 28.3,18.45 28.3,24.85 4,24.85"/>
<polygon id="0x1280b90" class="l78d44" points="0,12.5 32.2,12.5 32.2,27.2 0,27.2"/>
<polygon id="0xf908b0" class="l93d44" points="0,-1.9 32.2,-1.9 32.2,10.15 0,10.15"/>
<polygon id="0xf90980" class="l64d20" points="-1.9,13.05 34.1,13.05 34.1,29.1 -1.9,29.1"/>
<polygon id="0x102d990" class="l94d20" points="0,17.15 32.2,17.15 32.2,29.1 0,29.1"/>
<polygon id="0x102da60" class="l67d44" points="1.45,26.35 3.15,26.35 3.15,28.05 1.45,28.05"/>
<polygon id="0x12bdf40" class="l67d44" points="1.45,-0.85 3.15,-0.85 3.15,0.85 1.45,0.85"/>
<polygon id="0x12be010" class="l67d44" points="6.05,26.35 7.75,26.35 7.75,28.05 6.05,28.05"/>
<polygon id="0xf88270" class="l67d44" points="6.05,-0.85 7.75,-0.85 7.75,0.85 6.05,0.85"/>
<polygon id="0xf88340" class="l67d44" points="10.65,26.35 12.35,26.35 12.35,28.05 10.65,28.05"/>
<polygon id="0xfd1c10" class="l67d44" points="10.65,-0.85 12.35,-0.85 12.35,0.85 10.65,0.85"/>
<polygon id="0xfd1ce0" class="l67d44" points="15.25,26.35 16.95,26.35 16.95,28.05 15.25,28.05"/>
<polygon id="0xfebb00" class="l67d44" points="15.25,-0.85 16.95,-0.85 16.95,0.85 15.25,0.85"/>
<polygon id="0xfebbd0" class="l67d44" points="19.85,26.35 21.55,26.35 21.55,28.05 19.85,28.05"/>
<polygon id="0x105c430" class="l67d44" points="19.85,-0.85 21.55,-0.85 21.55,0.85 19.85,0.85"/>
<polygon id="0x105c500" class="l67d44" points="24.45,26.35 26.15,26.35 26.15,28.05 24.45,28.05"/>
<polygon id="0x1051170" class="l67d44" points="24.45,-0.85 26.15,-0.85 26.15,0.85 24.45,0.85"/>
<polygon id="0x1051240" class="l67d44" points="29.05,26.35 30.75,26.35 30.75,28.05 29.05,28.05"/>
<polygon id="0x11bcf30" class="l67d44" points="29.05,-0.85 30.75,-0.85 30.75,0.85 29.05,0.85"/>
<polygon id="0x11bd000" class="l67d16" points="1.45,14.45 3.15,14.45 3.15,16.15 1.45,16.15"/>
<polygon id="0x11e72c0" class="l67d16" points="10.65,11.05 12.35,11.05 12.35,12.75 10.65,12.75"/>
<polygon id="0x11e7390" class="l67d16" points="29.05,7.65 30.75,7.65 30.75,9.35 29.05,9.35"/>
<polygon id="0x126cd50" class="l67d16" points="24.45,11.05 26.15,11.05 26.15,12.75 24.45,12.75"/>
<polygon id="0x126ce20" class="l67d16" points="15.25,14.45 16.95,14.45 16.95,16.15 15.25,16.15"/>
<polygon id="0xf99e20" class="l67d16" points="6.05,21.25 7.75,21.25 7.75,22.95 6.05,22.95"/>
<polygon id="0xf99ef0" class="l67d16" points="1.45,11.05 3.15,11.05 3.15,12.75 1.45,12.75"/>
<polygon id="0x118e560" class="l67d16" points="1.45,7.65 3.15,7.65 3.15,9.35 1.45,9.35"/>
<polygon id="0x118e630" class="l67d16" points="6.05,17.85 7.75,17.85 7.75,19.55 6.05,19.55"/>
<polygon id="0x1210c70" class="l67d16" points="6.05,14.45 7.75,14.45 7.75,16.15 6.05,16.15"/>
<polygon id="0x1210d40" class="l67d16" points="6.05,11.05 7.75,11.05 7.75,12.75 6.05,12.75"/>
<polygon id="0x127a6e0" class="l67d16" points="6.05,7.65 7.75,7.65 7.75,9.35 6.05,9.35"/>
<polygon id="0x127a7b0" class="l67d16" points="10.65,14.45 12.35,14.45 12.35,16.15 10.65,16.15"/>
<polygon id="0x1270d50" class="l67d16" points="10.65,17.85 12.35,17.85 12.35,19.55 10.65,19.55"/>
<polygon id="0x1270e20" class="l67d16" points="10.65,21.25 12.35,21.25 12.35,22.95 10.65,22.95"/>
<polygon id="0x104e5a0" class="l67d16" points="15.25,11.05 16.95,11.05 16.95,12.75 15.25,12.75"/>
<polygon id="0x104e670" class="l67d16" points="29.05,11.05 30.75,11.05 30.75,12.75 29.05,12.75"/>
<polygon id="0x1056a60" class="l67d16" points="29.05,14.45 30.75,14.45 30.75,16.15 29.05,16.15"/>
<polygon id="0x1056b30" class="l67d16" points="24.45,7.65 26.15,7.65 26.15,9.35 24.45,9.35"/>
<polygon id="0x1209fd0" class="l67d16" points="24.45,14.45 26.15,14.45 26.15,16.15 24.45,16.15"/>
<polygon id="0x120a0a0" class="l81d4" points="0,0 32.2,0 32.2,27.2 0,27.2"/>
<polygon id="0x12642d0" class="l68d20" points="0,2.4 0,-2.4 32.2,-2.4 32.2,2.4"/>
<polygon id="0x12642d0" class="l68d20" points="0,29.6 0,24.8 32.2,24.8 32.2,29.6"/>
<text id="0x10cf3c0" class="l67t5" text-anchor="middle" dominant-baseline="central" transform="translate(29.9 8.5) scale(0.2) scale(1 -1)">A2</text>
<text id="0x10cf450" class="l67t5" text-anchor="middle" dominant-baseline="central" transform="translate(25.3 11.9) scale(0.2) scale(1 -1)">A1</text>
<text id="0x1290880" class="l67t5" text-anchor="middle" dominant-baseline="central" transform="translate(16.1 15.3) scale(0.2) scale(1 -1)">B1</text>
<text id="0x12b2ab0" class="l67t5" text-anchor="middle" dominant-baseline="central" transform="translate(11.5 11.9) scale(0.2) scale(1 -1)">C1</text>
<text id="0x12628c0" class="l67t5" text-anchor="middle" dominant-baseline="central" transform="translate(6.9 22.1) scale(0.2) scale(1 -1)">Y</text>
<text id="0x11b6850" class="l67t5" text-anchor="middle" dominant-baseline="central" transform="translate(2.3 15.3) scale(0.2) scale(1 -1)">D1</text>
<text id="0x11b6900" class="l67t5" text-anchor="middle" dominant-baseline="central" transform="translate(2.3 11.9) scale(0.2) scale(1 -1)">D1</text>
<text id="0x11e4310" class="l67t5" text-anchor="middle" dominant-baseline="central" transform="translate(2.3 8.5) scale(0.2) scale(1 -1)">D1</text>
<text id="0x11e43c0" class="l67t5" text-anchor="middle" dominant-baseline="central" transform="translate(6.9 18.7) scale(0.2) scale(1 -1)">Y</text>
<text id="0x127c150" class="l67t5" text-anchor="middle" dominant-baseline="central" transform="translate(6.9 15.3) scale(0.2) scale(1 -1)">Y</text>
<text id="0x12cbf30" class="l67t5" text-anchor="middle" dominant-baseline="central" transform="translate(6.9 11.9) scale(0.2) scale(1 -1)">Y</text>
<text id="0x12cbfe0" class="l67t5" text-anchor="middle" dominant-baseline="central" transform="translate(6.9 8.5) scale(0.2) scale(1 -1)">Y</text>
<text id="0xf9b470" class="l67t5" text-anchor="middle" dominant-baseline="central" transform="translate(11.5 15.3) scale(0.2) scale(1 -1)">C1</text>
<text id="0xf9b520" class="l67t5" text-anchor="middle" dominant-baseline="central" transform="translate(11.5 18.7) scale(0.2) scale(1 -1)">C1</text>
<text id="0xf82450" class="l67t5" text-anchor="middle" dominant-baseline="central" transform="translate(11.5 22.1) scale(0.2) scale(1 -1)">C1</text>
<text id="0xf824e0" class="l67t5" text-anchor="middle" dominant-baseline="central" transform="translate(16.1 11.9) scale(0.2) scale(1 -1)">B1</text>
<text id="0xff87a0" class="l67t5" text-anchor="middle" dominant-baseline="central" transform="translate(29.9 11.9) scale(0.2) scale(1 -1)">A2</text>
<text id="0xff8830" class="l67t5" text-anchor="middle" dominant-baseline="central" transform="translate(29.9 15.3) scale(0.2) scale(1 -1)">A2</text>
<text id="0x10b5360" class="l67t5" text-anchor="middle" dominant-baseline="central" transform="translate(25.3 8.5) scale(0.2) scale(1 -1)">A1</text>
<text id="0x10b5410" class="l67t5" text-anchor="middle" dominant-baseline="central" transform="translate(25.3 15.3) scale(0.2) scale(1 -1)">A1</text>
<text id="0x1198fb0" class="l64t59" text-anchor="middle" dominant-baseline="central" transform="translate(2.3 0) scale(0.1) scale(1 -1)">VNB</text>
<text id="0x1199060" class="l64t5" text-anchor="middle" dominant-baseline="central" transform="translate(2.3 27.2) scale(0.1) scale(1 -1)">VPB</text>
<text id="0x12751d0" class="l68t5" text-anchor="middle" dominant-baseline="central" transform="translate(2.3 27.2) scale(0.1) scale(1 -1)">VPWR</text>
<text id="0x1275260" class="l68t5" text-anchor="middle" dominant-baseline="central" transform="translate(2.3 0) scale(0.1) scale(1 -1)">VGND</text>
<text id="0x1264240" class="l83t44" text-anchor="start" dominant-baseline="text-before-edge" transform="translate(0 0) rotate(90) scale(0.1) scale(1 -1)">a2111oi_0</text>
</g>
</svg>